<svg width="118" height="109" viewBox="0 0 118 109" fill="none" xmlns="http://www.w3.org/2000/svg">
<rect width="117.581" height="108.932" transform="translate(0.209518)" fill="#D9D9D9"/>
<path d="M92.7905 53.9659C92.7905 55.9091 92.4126 57.5483 91.657 58.8835C90.9013 60.2131 89.8814 61.2216 88.5973 61.9091C87.3132 62.5909 85.8814 62.9318 84.3019 62.9318C82.7109 62.9318 81.2734 62.5881 79.9894 61.9006C78.7109 61.2074 77.6939 60.196 76.9382 58.8665C76.1882 57.5313 75.8132 55.8977 75.8132 53.9659C75.8132 52.0227 76.1882 50.3864 76.9382 49.0568C77.6939 47.7216 78.7109 46.7131 79.9894 46.0312C81.2734 45.3438 82.7109 45 84.3019 45C85.8814 45 87.3132 45.3438 88.5973 46.0312C89.8814 46.7131 90.9013 47.7216 91.657 49.0568C92.4126 50.3864 92.7905 52.0227 92.7905 53.9659ZM87.9155 53.9659C87.9155 52.9205 87.7763 52.0398 87.4979 51.3239C87.2251 50.6023 86.8189 50.0568 86.2791 49.6875C85.745 49.3125 85.0859 49.125 84.3019 49.125C83.5178 49.125 82.8558 49.3125 82.3161 49.6875C81.782 50.0568 81.3757 50.6023 81.0973 51.3239C80.8246 52.0398 80.6882 52.9205 80.6882 53.9659C80.6882 55.0114 80.8246 55.8949 81.0973 56.6165C81.3757 57.3324 81.782 57.8778 82.3161 58.2528C82.8558 58.6222 83.5178 58.8068 84.3019 58.8068C85.0859 58.8068 85.745 58.6222 86.2791 58.2528C86.8189 57.8778 87.2251 57.3324 87.4979 56.6165C87.7763 55.8949 87.9155 55.0114 87.9155 53.9659Z" fill="#1C1C1C"/>
<path d="M68.6776 51C68.6037 50.6989 68.4872 50.4347 68.3281 50.2074C68.169 49.9744 67.9702 49.7784 67.7315 49.6193C67.4986 49.4545 67.2259 49.3324 66.9134 49.2528C66.6065 49.1676 66.2685 49.125 65.8992 49.125C65.1037 49.125 64.4247 49.3153 63.8622 49.696C63.3054 50.0767 62.8793 50.625 62.5838 51.3409C62.294 52.0568 62.1492 52.9205 62.1492 53.9318C62.1492 54.9545 62.2884 55.8295 62.5668 56.5568C62.8452 57.2841 63.2599 57.8409 63.8111 58.2273C64.3622 58.6136 65.0469 58.8068 65.8651 58.8068C66.5867 58.8068 67.1861 58.7017 67.6634 58.4915C68.1463 58.2813 68.5071 57.983 68.7457 57.5966C68.9844 57.2102 69.1037 56.7557 69.1037 56.233L69.9219 56.3182H65.9332V52.9432H73.6719V55.3636C73.6719 56.9545 73.3338 58.3153 72.6577 59.446C71.9872 60.571 71.0611 61.4347 69.8793 62.0369C68.7031 62.6335 67.3537 62.9318 65.831 62.9318C64.1321 62.9318 62.6406 62.571 61.3565 61.8494C60.0724 61.1278 59.0696 60.0994 58.348 58.7642C57.6321 57.429 57.2742 55.8409 57.2742 54C57.2742 52.5568 57.4929 51.2784 57.9304 50.1648C58.3736 49.0511 58.9872 48.1108 59.7713 47.3438C60.5554 46.571 61.4617 45.9886 62.4901 45.5966C63.5185 45.1989 64.6207 45 65.7969 45C66.831 45 67.7912 45.1477 68.6776 45.4432C69.5696 45.733 70.3565 46.1477 71.0384 46.6875C71.7259 47.2216 72.2798 47.8551 72.7003 48.5881C73.1207 49.321 73.3764 50.125 73.4673 51H68.6776Z" fill="#1C1C1C"/>
<path d="M55.1499 53.9659C55.1499 55.9091 54.772 57.5483 54.0163 58.8835C53.2606 60.2131 52.2408 61.2216 50.9567 61.9091C49.6726 62.5909 48.2408 62.9318 46.6612 62.9318C45.0703 62.9318 43.6328 62.5881 42.3487 61.9006C41.0703 61.2074 40.0533 60.196 39.2976 58.8665C38.5476 57.5313 38.1726 55.8977 38.1726 53.9659C38.1726 52.0227 38.5476 50.3864 39.2976 49.0568C40.0533 47.7216 41.0703 46.7131 42.3487 46.0312C43.6328 45.3438 45.0703 45 46.6612 45C48.2408 45 49.6726 45.3438 50.9567 46.0312C52.2408 46.7131 53.2606 47.7216 54.0163 49.0568C54.772 50.3864 55.1499 52.0227 55.1499 53.9659ZM50.2749 53.9659C50.2749 52.9205 50.1356 52.0398 49.8572 51.3239C49.5845 50.6023 49.1783 50.0568 48.6385 49.6875C48.1044 49.3125 47.4453 49.125 46.6612 49.125C45.8771 49.125 45.2152 49.3125 44.6754 49.6875C44.1413 50.0568 43.7351 50.6023 43.4567 51.3239C43.1839 52.0398 43.0476 52.9205 43.0476 53.9659C43.0476 55.0114 43.1839 55.8949 43.4567 56.6165C43.7351 57.3324 44.1413 57.8778 44.6754 58.2528C45.2152 58.6222 45.8771 58.8068 46.6612 58.8068C47.4453 58.8068 48.1044 58.6222 48.6385 58.2528C49.1783 57.8778 49.5845 57.3324 49.8572 56.6165C50.1356 55.8949 50.2749 55.0114 50.2749 53.9659Z" fill="#1C1C1C"/>
<path d="M25.2095 62.6933V45.2388H29.9482V58.8751H37.005V62.6933H25.2095Z" fill="#1C1C1C"/>
</svg>
