<svg>

    <symbol id="fire" viewBox="0 0 32 32" fill="none" xmlns="http://www.w3.org/2000/svg">
        <path d="M16 16C18.6667 12.0533 16 6.66666 14.6667 5.33333C14.6667 9.38399 12.3027 11.6547 10.6667 13.3333C9.032 15.0133 8 17.6533 8 20C8 22.1217 8.84286 24.1566 10.3431 25.6568C11.8434 27.1571 13.8783 28 16 28C18.1217 28 20.1566 27.1571 21.6569 25.6568C23.1571 24.1566 24 22.1217 24 20C24 17.9573 22.592 14.7467 21.3333 13.3333C18.952 17.3333 17.612 17.3333 16 16Z" stroke="currentColor" stroke-width="2" stroke-linecap="round" stroke-linejoin="round"/>
    </symbol>

    <symbol id="number-1" viewBox="0 0 36 36" fill="none" xmlns="http://www.w3.org/2000/svg">
        <path d="M12.84 5.53491C11.2021 6.21289 9.7138 7.2068 8.46 8.45991M5.535 12.8401C4.85484 14.4755 4.50315 16.2288 4.5 18.0001M5.535 23.1599C6.21298 24.7978 7.2069 26.2861 8.46 27.5399M12.84 30.4651C14.4754 31.1453 16.2288 31.4969 18 31.5001M23.16 30.465C24.7979 29.787 26.2862 28.7931 27.54 27.54M30.465 23.16C31.1452 21.5246 31.4968 19.7712 31.5 18M30.465 12.84C29.787 11.2021 28.7931 9.71382 27.54 8.46002M23.16 5.535C21.5246 4.85484 19.7712 4.50315 18 4.5M15 15L18 12V24" stroke="currentColor" stroke-width="2" stroke-linecap="round" stroke-linejoin="round"/>
    </symbol>

    <symbol id="number-2" viewBox="0 0 36 36" fill="none" xmlns="http://www.w3.org/2000/svg">
        <path d="M12.84 5.53491C11.2021 6.21289 9.7138 7.2068 8.46 8.45991M5.535 12.8401C4.85484 14.4755 4.50315 16.2288 4.5 18.0001M5.535 23.1599C6.21298 24.7978 7.2069 26.2861 8.46 27.5399M12.84 30.4651C14.4754 31.1453 16.2288 31.4969 18 31.5001M23.16 30.465C24.7979 29.787 26.2862 28.7931 27.54 27.54M30.465 23.16C31.1452 21.5246 31.4968 19.7712 31.5 18M30.465 12.84C29.787 11.2021 28.7931 9.71382 27.54 8.46002M23.16 5.535C21.5246 4.85484 19.7712 4.50315 18 4.5M15 12H19.5C19.8978 12 20.2794 12.158 20.5607 12.4393C20.842 12.7206 21 13.1022 21 13.5V16.5C21 16.8978 20.842 17.2794 20.5607 17.5607C20.2794 17.842 19.8978 18 19.5 18H16.5C16.1022 18 15.7206 18.158 15.4393 18.4393C15.158 18.7206 15 19.1022 15 19.5V22.5C15 22.8978 15.158 23.2794 15.4393 23.5607C15.7206 23.842 16.1022 24 16.5 24H21" stroke="currentColor" stroke-width="2" stroke-linecap="round" stroke-linejoin="round"/>
    </symbol>

    <symbol id="number-3" viewBox="0 0 36 36" fill="none" xmlns="http://www.w3.org/2000/svg">
        <path d="M12.84 5.53491C11.2021 6.21289 9.7138 7.2068 8.46 8.45991M5.535 12.8401C4.85484 14.4755 4.50315 16.2288 4.5 18.0001M5.535 23.1599C6.21298 24.7978 7.2069 26.2861 8.46 27.5399M12.84 30.4651C14.4754 31.1453 16.2288 31.4969 18 31.5001M23.16 30.465C24.7979 29.787 26.2862 28.7931 27.54 27.54M30.465 23.16C31.1452 21.5246 31.4968 19.7712 31.5 18M30.465 12.84C29.787 11.2021 28.7931 9.71382 27.54 8.46002M23.16 5.535C21.5246 4.85484 19.7712 4.50315 18 4.5M15 12H18.75C19.3467 12 19.919 12.2371 20.341 12.659C20.7629 13.081 21 13.6533 21 14.25V15.75C21 16.3467 20.7629 16.919 20.341 17.341C19.919 17.7629 19.3467 18 18.75 18M18.75 18H16.5M18.75 18C19.3467 18 19.919 18.2371 20.341 18.659C20.7629 19.081 21 19.6533 21 20.25V21.75C21 22.3467 20.7629 22.919 20.341 23.341C19.919 23.7629 19.3467 24 18.75 24H15" stroke="currentColor" stroke-width="2" stroke-linecap="round" stroke-linejoin="round"/>
    </symbol>

    <symbol id="number-4" viewBox="0 0 36 36" fill="none" xmlns="http://www.w3.org/2000/svg">
        <path d="M12.84 5.53491C11.2021 6.21289 9.7138 7.2068 8.46 8.45991M5.535 12.8401C4.85484 14.4755 4.50315 16.2288 4.5 18.0001M5.535 23.1599C6.21298 24.7978 7.2069 26.2861 8.46 27.5399M12.84 30.4651C14.4754 31.1453 16.2288 31.4969 18 31.5001M23.16 30.465C24.7979 29.787 26.2862 28.7931 27.54 27.54M30.465 23.16C31.1452 21.5246 31.4968 19.7712 31.5 18M30.465 12.84C29.787 11.2021 28.7931 9.71382 27.54 8.46002M23.16 5.535C21.5246 4.85484 19.7712 4.50315 18 4.5M15 12V16.5C15 16.8978 15.158 17.2794 15.4393 17.5607C15.7206 17.842 16.1022 18 16.5 18H21M21 12V24" stroke="currentColor" stroke-width="2" stroke-linecap="round" stroke-linejoin="round"/>
    </symbol>

    <symbol id="number-5" viewBox="0 0 36 36" fill="none" xmlns="http://www.w3.org/2000/svg">
        <path d="M12.84 5.53491C11.2021 6.21289 9.7138 7.2068 8.46 8.45991M5.535 12.8401C4.85484 14.4755 4.50315 16.2288 4.5 18.0001M5.535 23.1599C6.21298 24.7978 7.2069 26.2861 8.46 27.5399M12.84 30.4651C14.4754 31.1453 16.2288 31.4969 18 31.5001M23.16 30.465C24.7979 29.787 26.2862 28.7931 27.54 27.54M30.465 23.16C31.1452 21.5246 31.4968 19.7712 31.5 18M30.465 12.84C29.787 11.2021 28.7931 9.71382 27.54 8.46002M23.16 5.535C21.5246 4.85484 19.7712 4.50315 18 4.5M15 22.5C15 22.8978 15.158 23.2794 15.4393 23.5607C15.7206 23.842 16.1022 24 16.5 24H19.5C19.8978 24 20.2794 23.842 20.5607 23.5607C20.842 23.2794 21 22.8978 21 22.5V19.5C21 19.1022 20.842 18.7206 20.5607 18.4393C20.2794 18.158 19.8978 18 19.5 18H15V12H21" stroke="currentColor" stroke-width="2" stroke-linecap="round" stroke-linejoin="round"/>
    </symbol>

    <symbol id="number-6" viewBox="0 0 36 36" fill="none" xmlns="http://www.w3.org/2000/svg">
        <path d="M12.84 5.53491C11.2021 6.21289 9.7138 7.2068 8.46 8.45991M5.535 12.8401C4.85484 14.4755 4.50315 16.2288 4.5 18.0001M5.535 23.1599C6.21298 24.7978 7.2069 26.2861 8.46 27.5399M12.84 30.4651C14.4754 31.1453 16.2288 31.4969 18 31.5001M23.16 30.465C24.7979 29.787 26.2862 28.7931 27.54 27.54M30.465 23.16C31.1452 21.5246 31.4968 19.7712 31.5 18M30.465 12.84C29.787 11.2021 28.7931 9.71382 27.54 8.46002M23.16 5.535C21.5246 4.85484 19.7712 4.50315 18 4.5M21 13.5C21 13.1022 20.842 12.7206 20.5607 12.4393C20.2794 12.158 19.8978 12 19.5 12H16.5C16.1022 12 15.7206 12.158 15.4393 12.4393C15.158 12.7206 15 13.1022 15 13.5V22.5C15 22.8978 15.158 23.2794 15.4393 23.5607C15.7206 23.842 16.1022 24 16.5 24H19.5C19.8978 24 20.2794 23.842 20.5607 23.5607C20.842 23.2794 21 22.8978 21 22.5V19.5C21 19.1022 20.842 18.7206 20.5607 18.4393C20.2794 18.158 19.8978 18 19.5 18H15" stroke="currentColor" stroke-width="2" stroke-linecap="round" stroke-linejoin="round"/>
    </symbol>

    <symbol id="number-7" viewBox="0 0 36 36" fill="none" xmlns="http://www.w3.org/2000/svg">
        <path d="M12.84 5.53491C11.2021 6.21289 9.7138 7.2068 8.46 8.45991M5.535 12.8401C4.85484 14.4755 4.50315 16.2288 4.5 18.0001M5.535 23.1599C6.21298 24.7978 7.2069 26.2861 8.46 27.5399M12.84 30.4651C14.4754 31.1453 16.2288 31.4969 18 31.5001M23.16 30.465C24.7979 29.787 26.2862 28.7931 27.54 27.54M30.465 23.16C31.1452 21.5246 31.4968 19.7712 31.5 18M30.465 12.84C29.787 11.2021 28.7931 9.71382 27.54 8.46002M23.16 5.535C21.5246 4.85484 19.7712 4.50315 18 4.5M15 12H21L18 24" stroke="currentColor" stroke-width="2" stroke-linecap="round" stroke-linejoin="round"/>
    </symbol>

    <symbol id="number-8" viewBox="0 0 36 36" fill="none" xmlns="http://www.w3.org/2000/svg">
        <path d="M12.84 5.53491C11.2021 6.21289 9.7138 7.2068 8.46 8.45991M5.535 12.8401C4.85484 14.4755 4.50315 16.2288 4.5 18.0001M5.535 23.1599C6.21298 24.7978 7.2069 26.2861 8.46 27.5399M12.84 30.4651C14.4754 31.1453 16.2288 31.4969 18 31.5001M23.16 30.465C24.7979 29.787 26.2862 28.7931 27.54 27.54M30.465 23.16C31.1452 21.5246 31.4968 19.7712 31.5 18M30.465 12.84C29.787 11.2021 28.7931 9.71382 27.54 8.46002M23.16 5.535C21.5246 4.85484 19.7712 4.50315 18 4.5M18 18H16.5M16.5 18C16.1022 18 15.7206 17.842 15.4393 17.5607C15.158 17.2794 15 16.8978 15 16.5V13.5C15 13.1022 15.158 12.7206 15.4393 12.4393C15.7206 12.158 16.1022 12 16.5 12H19.5C19.8978 12 20.2794 12.158 20.5607 12.4393C20.842 12.7206 21 13.1022 21 13.5V16.5C21 16.8978 20.842 17.2794 20.5607 17.5607C20.2794 17.842 19.8978 18 19.5 18M16.5 18H19.5M16.5 18C16.1022 18 15.7206 18.158 15.4393 18.4393C15.158 18.7206 15 19.1022 15 19.5V22.5C15 22.8978 15.158 23.2794 15.4393 23.5607C15.7206 23.842 16.1022 24 16.5 24H19.5C19.8978 24 20.2794 23.842 20.5607 23.5607C20.842 23.2794 21 22.8978 21 22.5V19.5C21 19.1022 20.842 18.7206 20.5607 18.4393C20.2794 18.158 19.8978 18 19.5 18" stroke="currentColor" stroke-width="2" stroke-linecap="round" stroke-linejoin="round"/>
    </symbol>

    <symbol id="number-9" viewBox="0 0 36 36" fill="none" xmlns="http://www.w3.org/2000/svg">
        <path d="M12.84 5.53491C11.2021 6.21289 9.7138 7.2068 8.46 8.45991M5.535 12.8401C4.85484 14.4755 4.50315 16.2288 4.5 18.0001M5.535 23.1599C6.21298 24.7978 7.2069 26.2861 8.46 27.5399M12.84 30.4651C14.4754 31.1453 16.2288 31.4969 18 31.5001M23.16 30.465C24.7979 29.787 26.2862 28.7931 27.54 27.54M30.465 23.16C31.1452 21.5246 31.4968 19.7712 31.5 18M30.465 12.84C29.787 11.2021 28.7931 9.71382 27.54 8.46002M23.16 5.535C21.5246 4.85484 19.7712 4.50315 18 4.5M15 22.5C15 22.8978 15.158 23.2794 15.4393 23.5607C15.7206 23.842 16.1022 24 16.5 24H19.5C19.8978 24 20.2794 23.842 20.5607 23.5607C20.842 23.2794 21 22.8978 21 22.5V13.5C21 13.1022 20.842 12.7206 20.5607 12.4393C20.2794 12.158 19.8978 12 19.5 12H16.5C16.1022 12 15.7206 12.158 15.4393 12.4393C15.158 12.7206 15 13.1022 15 13.5V16.5C15 16.8978 15.158 17.2794 15.4393 17.5607C15.7206 17.842 16.1022 18 16.5 18H21" stroke="currentColor" stroke-width="2" stroke-linecap="round" stroke-linejoin="round"/>
    </symbol>

</svg>
