<svg>

    <symbol id="fire" viewBox="0 0 32 32" fill="none" xmlns="http://www.w3.org/2000/svg">
        <path d="M16 16C18.6667 12.0533 16 6.66666 14.6667 5.33333C14.6667 9.38399 12.3027 11.6547 10.6667 13.3333C9.032 15.0133 8 17.6533 8 20C8 22.1217 8.84286 24.1566 10.3431 25.6568C11.8434 27.1571 13.8783 28 16 28C18.1217 28 20.1566 27.1571 21.6569 25.6568C23.1571 24.1566 24 22.1217 24 20C24 17.9573 22.592 14.7467 21.3333 13.3333C18.952 17.3333 17.612 17.3333 16 16Z" stroke="currentColor" stroke-width="2" stroke-linecap="round" stroke-linejoin="round"/>
    </symbol>

    <symbol id="number-1" viewBox="0 0 36 36" fill="none" xmlns="http://www.w3.org/2000/svg">
        <path d="M12.84 5.53491C11.2021 6.21289 9.7138 7.2068 8.46 8.45991M5.535 12.8401C4.85484 14.4755 4.50315 16.2288 4.5 18.0001M5.535 23.1599C6.21298 24.7978 7.2069 26.2861 8.46 27.5399M12.84 30.4651C14.4754 31.1453 16.2288 31.4969 18 31.5001M23.16 30.465C24.7979 29.787 26.2862 28.7931 27.54 27.54M30.465 23.16C31.1452 21.5246 31.4968 19.7712 31.5 18M30.465 12.84C29.787 11.2021 28.7931 9.71382 27.54 8.46002M23.16 5.535C21.5246 4.85484 19.7712 4.50315 18 4.5M15 15L18 12V24" stroke="currentColor" stroke-width="2" stroke-linecap="round" stroke-linejoin="round"/>
    </symbol>

    <symbol id="number-2" viewBox="0 0 36 36" fill="none" xmlns="http://www.w3.org/2000/svg">
        <path d="M12.84 5.53491C11.2021 6.21289 9.7138 7.2068 8.46 8.45991M5.535 12.8401C4.85484 14.4755 4.50315 16.2288 4.5 18.0001M5.535 23.1599C6.21298 24.7978 7.2069 26.2861 8.46 27.5399M12.84 30.4651C14.4754 31.1453 16.2288 31.4969 18 31.5001M23.16 30.465C24.7979 29.787 26.2862 28.7931 27.54 27.54M30.465 23.16C31.1452 21.5246 31.4968 19.7712 31.5 18M30.465 12.84C29.787 11.2021 28.7931 9.71382 27.54 8.46002M23.16 5.535C21.5246 4.85484 19.7712 4.50315 18 4.5M15 12H19.5C19.8978 12 20.2794 12.158 20.5607 12.4393C20.842 12.7206 21 13.1022 21 13.5V16.5C21 16.8978 20.842 17.2794 20.5607 17.5607C20.2794 17.842 19.8978 18 19.5 18H16.5C16.1022 18 15.7206 18.158 15.4393 18.4393C15.158 18.7206 15 19.1022 15 19.5V22.5C15 22.8978 15.158 23.2794 15.4393 23.5607C15.7206 23.842 16.1022 24 16.5 24H21" stroke="currentColor" stroke-width="2" stroke-linecap="round" stroke-linejoin="round"/>
    </symbol>

    <symbol id="number-3" viewBox="0 0 36 36" fill="none" xmlns="http://www.w3.org/2000/svg">
        <path d="M12.84 5.53491C11.2021 6.21289 9.7138 7.2068 8.46 8.45991M5.535 12.8401C4.85484 14.4755 4.50315 16.2288 4.5 18.0001M5.535 23.1599C6.21298 24.7978 7.2069 26.2861 8.46 27.5399M12.84 30.4651C14.4754 31.1453 16.2288 31.4969 18 31.5001M23.16 30.465C24.7979 29.787 26.2862 28.7931 27.54 27.54M30.465 23.16C31.1452 21.5246 31.4968 19.7712 31.5 18M30.465 12.84C29.787 11.2021 28.7931 9.71382 27.54 8.46002M23.16 5.535C21.5246 4.85484 19.7712 4.50315 18 4.5M15 12H18.75C19.3467 12 19.919 12.2371 20.341 12.659C20.7629 13.081 21 13.6533 21 14.25V15.75C21 16.3467 20.7629 16.919 20.341 17.341C19.919 17.7629 19.3467 18 18.75 18M18.75 18H16.5M18.75 18C19.3467 18 19.919 18.2371 20.341 18.659C20.7629 19.081 21 19.6533 21 20.25V21.75C21 22.3467 20.7629 22.919 20.341 23.341C19.919 23.7629 19.3467 24 18.75 24H15" stroke="currentColor" stroke-width="2" stroke-linecap="round" stroke-linejoin="round"/>
    </symbol>

    <symbol id="number-4" viewBox="0 0 36 36" fill="none" xmlns="http://www.w3.org/2000/svg">
        <path d="M12.84 5.53491C11.2021 6.21289 9.7138 7.2068 8.46 8.45991M5.535 12.8401C4.85484 14.4755 4.50315 16.2288 4.5 18.0001M5.535 23.1599C6.21298 24.7978 7.2069 26.2861 8.46 27.5399M12.84 30.4651C14.4754 31.1453 16.2288 31.4969 18 31.5001M23.16 30.465C24.7979 29.787 26.2862 28.7931 27.54 27.54M30.465 23.16C31.1452 21.5246 31.4968 19.7712 31.5 18M30.465 12.84C29.787 11.2021 28.7931 9.71382 27.54 8.46002M23.16 5.535C21.5246 4.85484 19.7712 4.50315 18 4.5M15 12V16.5C15 16.8978 15.158 17.2794 15.4393 17.5607C15.7206 17.842 16.1022 18 16.5 18H21M21 12V24" stroke="currentColor" stroke-width="2" stroke-linecap="round" stroke-linejoin="round"/>
    </symbol>

    <symbol id="number-5" viewBox="0 0 36 36" fill="none" xmlns="http://www.w3.org/2000/svg">
        <path d="M12.84 5.53491C11.2021 6.21289 9.7138 7.2068 8.46 8.45991M5.535 12.8401C4.85484 14.4755 4.50315 16.2288 4.5 18.0001M5.535 23.1599C6.21298 24.7978 7.2069 26.2861 8.46 27.5399M12.84 30.4651C14.4754 31.1453 16.2288 31.4969 18 31.5001M23.16 30.465C24.7979 29.787 26.2862 28.7931 27.54 27.54M30.465 23.16C31.1452 21.5246 31.4968 19.7712 31.5 18M30.465 12.84C29.787 11.2021 28.7931 9.71382 27.54 8.46002M23.16 5.535C21.5246 4.85484 19.7712 4.50315 18 4.5M15 22.5C15 22.8978 15.158 23.2794 15.4393 23.5607C15.7206 23.842 16.1022 24 16.5 24H19.5C19.8978 24 20.2794 23.842 20.5607 23.5607C20.842 23.2794 21 22.8978 21 22.5V19.5C21 19.1022 20.842 18.7206 20.5607 18.4393C20.2794 18.158 19.8978 18 19.5 18H15V12H21" stroke="currentColor" stroke-width="2" stroke-linecap="round" stroke-linejoin="round"/>
    </symbol>

    <symbol id="number-6" viewBox="0 0 36 36" fill="none" xmlns="http://www.w3.org/2000/svg">
        <path d="M12.84 5.53491C11.2021 6.21289 9.7138 7.2068 8.46 8.45991M5.535 12.8401C4.85484 14.4755 4.50315 16.2288 4.5 18.0001M5.535 23.1599C6.21298 24.7978 7.2069 26.2861 8.46 27.5399M12.84 30.4651C14.4754 31.1453 16.2288 31.4969 18 31.5001M23.16 30.465C24.7979 29.787 26.2862 28.7931 27.54 27.54M30.465 23.16C31.1452 21.5246 31.4968 19.7712 31.5 18M30.465 12.84C29.787 11.2021 28.7931 9.71382 27.54 8.46002M23.16 5.535C21.5246 4.85484 19.7712 4.50315 18 4.5M21 13.5C21 13.1022 20.842 12.7206 20.5607 12.4393C20.2794 12.158 19.8978 12 19.5 12H16.5C16.1022 12 15.7206 12.158 15.4393 12.4393C15.158 12.7206 15 13.1022 15 13.5V22.5C15 22.8978 15.158 23.2794 15.4393 23.5607C15.7206 23.842 16.1022 24 16.5 24H19.5C19.8978 24 20.2794 23.842 20.5607 23.5607C20.842 23.2794 21 22.8978 21 22.5V19.5C21 19.1022 20.842 18.7206 20.5607 18.4393C20.2794 18.158 19.8978 18 19.5 18H15" stroke="currentColor" stroke-width="2" stroke-linecap="round" stroke-linejoin="round"/>
    </symbol>

    <symbol id="number-7" viewBox="0 0 36 36" fill="none" xmlns="http://www.w3.org/2000/svg">
        <path d="M12.84 5.53491C11.2021 6.21289 9.7138 7.2068 8.46 8.45991M5.535 12.8401C4.85484 14.4755 4.50315 16.2288 4.5 18.0001M5.535 23.1599C6.21298 24.7978 7.2069 26.2861 8.46 27.5399M12.84 30.4651C14.4754 31.1453 16.2288 31.4969 18 31.5001M23.16 30.465C24.7979 29.787 26.2862 28.7931 27.54 27.54M30.465 23.16C31.1452 21.5246 31.4968 19.7712 31.5 18M30.465 12.84C29.787 11.2021 28.7931 9.71382 27.54 8.46002M23.16 5.535C21.5246 4.85484 19.7712 4.50315 18 4.5M15 12H21L18 24" stroke="currentColor" stroke-width="2" stroke-linecap="round" stroke-linejoin="round"/>
    </symbol>

    <symbol id="number-8" viewBox="0 0 36 36" fill="none" xmlns="http://www.w3.org/2000/svg">
        <path d="M12.84 5.53491C11.2021 6.21289 9.7138 7.2068 8.46 8.45991M5.535 12.8401C4.85484 14.4755 4.50315 16.2288 4.5 18.0001M5.535 23.1599C6.21298 24.7978 7.2069 26.2861 8.46 27.5399M12.84 30.4651C14.4754 31.1453 16.2288 31.4969 18 31.5001M23.16 30.465C24.7979 29.787 26.2862 28.7931 27.54 27.54M30.465 23.16C31.1452 21.5246 31.4968 19.7712 31.5 18M30.465 12.84C29.787 11.2021 28.7931 9.71382 27.54 8.46002M23.16 5.535C21.5246 4.85484 19.7712 4.50315 18 4.5M18 18H16.5M16.5 18C16.1022 18 15.7206 17.842 15.4393 17.5607C15.158 17.2794 15 16.8978 15 16.5V13.5C15 13.1022 15.158 12.7206 15.4393 12.4393C15.7206 12.158 16.1022 12 16.5 12H19.5C19.8978 12 20.2794 12.158 20.5607 12.4393C20.842 12.7206 21 13.1022 21 13.5V16.5C21 16.8978 20.842 17.2794 20.5607 17.5607C20.2794 17.842 19.8978 18 19.5 18M16.5 18H19.5M16.5 18C16.1022 18 15.7206 18.158 15.4393 18.4393C15.158 18.7206 15 19.1022 15 19.5V22.5C15 22.8978 15.158 23.2794 15.4393 23.5607C15.7206 23.842 16.1022 24 16.5 24H19.5C19.8978 24 20.2794 23.842 20.5607 23.5607C20.842 23.2794 21 22.8978 21 22.5V19.5C21 19.1022 20.842 18.7206 20.5607 18.4393C20.2794 18.158 19.8978 18 19.5 18" stroke="currentColor" stroke-width="2" stroke-linecap="round" stroke-linejoin="round"/>
    </symbol>

    <symbol id="number-9" viewBox="0 0 36 36" fill="none" xmlns="http://www.w3.org/2000/svg">
        <path d="M12.84 5.53491C11.2021 6.21289 9.7138 7.2068 8.46 8.45991M5.535 12.8401C4.85484 14.4755 4.50315 16.2288 4.5 18.0001M5.535 23.1599C6.21298 24.7978 7.2069 26.2861 8.46 27.5399M12.84 30.4651C14.4754 31.1453 16.2288 31.4969 18 31.5001M23.16 30.465C24.7979 29.787 26.2862 28.7931 27.54 27.54M30.465 23.16C31.1452 21.5246 31.4968 19.7712 31.5 18M30.465 12.84C29.787 11.2021 28.7931 9.71382 27.54 8.46002M23.16 5.535C21.5246 4.85484 19.7712 4.50315 18 4.5M15 22.5C15 22.8978 15.158 23.2794 15.4393 23.5607C15.7206 23.842 16.1022 24 16.5 24H19.5C19.8978 24 20.2794 23.842 20.5607 23.5607C20.842 23.2794 21 22.8978 21 22.5V13.5C21 13.1022 20.842 12.7206 20.5607 12.4393C20.2794 12.158 19.8978 12 19.5 12H16.5C16.1022 12 15.7206 12.158 15.4393 12.4393C15.158 12.7206 15 13.1022 15 13.5V16.5C15 16.8978 15.158 17.2794 15.4393 17.5607C15.7206 17.842 16.1022 18 16.5 18H21" stroke="currentColor" stroke-width="2" stroke-linecap="round" stroke-linejoin="round"/>
    </symbol>

    <symbol id="arrow" viewBox="0 0 16 10" fill="none" xmlns="http://www.w3.org/2000/svg">
        <path d="M1 8.5L8 1.5L15 8.5" stroke="currentColor" stroke-width="2" stroke-linecap="round" stroke-linejoin="round"/>
    </symbol>

    <symbol id="star" viewBox="0 0 24 24" fill="none" xmlns="http://www.w3.org/2000/svg">
        <path d="M8.24301 7.34004L1.86301 8.26505L1.75001 8.28804C1.57895 8.33346 1.423 8.42345 1.2981 8.54885C1.1732 8.67424 1.08381 8.83053 1.03907 9.00177C0.994331 9.17301 0.995837 9.35305 1.04344 9.52352C1.09104 9.69398 1.18303 9.84876 1.31001 9.97204L5.93201 14.471L4.84201 20.826L4.82901 20.936C4.81854 21.113 4.85528 21.2895 4.93546 21.4475C5.01564 21.6056 5.13639 21.7395 5.28535 21.8356C5.4343 21.9316 5.6061 21.9863 5.78316 21.9942C5.96022 22.002 6.13617 21.9626 6.29301 21.88L11.999 18.88L17.692 21.88L17.792 21.926C17.9571 21.9911 18.1365 22.011 18.3118 21.9838C18.4871 21.9566 18.652 21.8833 18.7896 21.7713C18.9272 21.6593 19.0326 21.5128 19.0948 21.3467C19.1571 21.1806 19.1741 21.0009 19.144 20.826L18.053 14.471L22.677 9.97104L22.755 9.88604C22.8664 9.74881 22.9395 9.5845 22.9667 9.40984C22.994 9.23518 22.9744 9.05642 22.9101 8.89178C22.8458 8.72713 22.7389 8.58248 22.6005 8.47256C22.4621 8.36264 22.297 8.29138 22.122 8.26604L15.742 7.34004L12.89 1.56004C12.8075 1.39258 12.6797 1.25156 12.5212 1.15295C12.3627 1.05434 12.1797 1.00208 11.993 1.00208C11.8063 1.00208 11.6233 1.05434 11.4648 1.15295C11.3063 1.25156 11.1785 1.39258 11.096 1.56004L8.24301 7.34004Z" fill="currentColor"/>
    </symbol>

    <symbol id="calendar" viewBox="0 0 24 24" fill="none" xmlns="http://www.w3.org/2000/svg">
        <path d="M16 3V7M8 3V7M4 11H20M4 7C4 6.46957 4.21071 5.96086 4.58579 5.58579C4.96086 5.21071 5.46957 5 6 5H18C18.5304 5 19.0391 5.21071 19.4142 5.58579C19.7893 5.96086 20 6.46957 20 7V19C20 19.5304 19.7893 20.0391 19.4142 20.4142C19.0391 20.7893 18.5304 21 18 21H6C5.46957 21 4.96086 20.7893 4.58579 20.4142C4.21071 20.0391 4 19.5304 4 19V7Z" stroke="currentColor" stroke-width="2" stroke-linecap="round" stroke-linejoin="round"/>
    </symbol>

    <symbol id="phone" viewBox="0 0 24 24" fill="none" xmlns="http://www.w3.org/2000/svg">
        <path d="M5 4H9L11 9L8.5 10.5C9.57096 12.6715 11.3285 14.429 13.5 15.5L15 13L20 15V19C20 19.5304 19.7893 20.0391 19.4142 20.4142C19.0391 20.7893 18.5304 21 18 21C14.0993 20.763 10.4202 19.1065 7.65683 16.3432C4.8935 13.5798 3.23705 9.90074 3 6C3 5.46957 3.21071 4.96086 3.58579 4.58579C3.96086 4.21071 4.46957 4 5 4Z" stroke="currentColor" stroke-width="2" stroke-linecap="round" stroke-linejoin="round"/>
    </symbol>

    <symbol id="mail" viewBox="0 0 24 24" fill="none" xmlns="http://www.w3.org/2000/svg">
        <path d="M3 7C3 6.46957 3.21071 5.96086 3.58579 5.58579C3.96086 5.21071 4.46957 5 5 5H19C19.5304 5 20.0391 5.21071 20.4142 5.58579C20.7893 5.96086 21 6.46957 21 7M3 7V17C3 17.5304 3.21071 18.0391 3.58579 18.4142C3.96086 18.7893 4.46957 19 5 19H19C19.5304 19 20.0391 18.7893 20.4142 18.4142C20.7893 18.0391 21 17.5304 21 17V7M3 7L12 13L21 7" stroke="currentColor" stroke-width="2" stroke-linecap="round" stroke-linejoin="round"/>
    </symbol>

    <symbol id="error" viewBox="0 0 24 24" fill="none" xmlns="http://www.w3.org/2000/svg">
        <path d="M12 19V19.01M12 15V5" stroke="currentColor" stroke-width="2" stroke-linecap="round" stroke-linejoin="round"/>
    </symbol>

</svg>
