<svg width="63" height="36" viewBox="0 0 63 36" fill="none" xmlns="http://www.w3.org/2000/svg">
<g clip-path="url(#clip0_151_237)">
<path d="M18.2318 35.9307C28.2776 35.9307 36.4259 27.8923 36.4259 17.9918C36.4259 8.09134 28.2777 0.0610657 18.2318 0.0610657C8.1777 0.0610657 0.029541 8.09134 0.029541 17.9918C0.029541 27.8923 8.1777 35.9307 18.2318 35.9307Z" fill="#E2001A"/>
<path d="M44.7071 35.9307C54.7529 35.9307 62.9011 27.8923 62.9011 17.9918C62.9011 8.09134 54.753 0.0610657 44.7071 0.0610657C34.6529 0.0610657 26.5132 8.09134 26.5132 17.9918C26.5132 27.8923 34.6529 35.9307 44.7071 35.9307Z" fill="#F6A800"/>
<path d="M31.457 30.2956C28.3942 27.0802 26.5132 22.7493 26.5132 17.9918C26.5132 13.2836 28.3609 8.99363 31.3655 5.79465L31.7483 5.99151C34.653 9.17409 36.4259 13.382 36.4259 17.9918C36.4259 22.6262 34.6365 26.8423 31.7151 30.0331L31.457 30.2956Z" fill="#EB690A"/>
<path d="M3.6001 13.4968H5.18978L7.2289 18.5086L9.05162 13.4968H10.7329V20.1737H9.42615V15.2194L7.67834 20.1737H6.68791L4.94009 15.285V20.1737H3.6001V13.4968Z" fill="white"/>
<path d="M17.4245 20.1737V15.0635H16.3092V20.1737H17.4245Z" fill="white"/>
<path d="M24.8819 20.1737V13.587H23.7084V20.1737H24.8819Z" fill="white"/>
<path d="M23.0342 15.0635V16.2857H25.6476V15.0635H23.0342Z" fill="white"/>
<path d="M49.5259 20.1737V15.0635H48.4108V20.1737H49.5259Z" fill="white"/>
<path d="M59.5968 20.1737V13.7839H58.4816V20.1737H59.5968Z" fill="white"/>
<path d="M34.3367 15.0635H33.1798V20.1737H34.3532V16.7941C34.6279 16.2446 35.4519 16.1297 35.585 16.1297V15.0306C35.3104 15.0306 34.3699 15.2356 34.3366 15.736V15.0635H34.3367Z" fill="white"/>
<path d="M52.0728 15.0635H50.9076V20.1737H52.0896V16.7941C52.3559 16.2446 53.1882 16.1297 53.313 16.1297V15.0306C53.0466 15.0306 52.1062 15.2356 52.0728 15.736V15.0635Z" fill="white"/>
<path d="M20.9201 16.5235H22.0604C22.0604 15.6295 21.4778 15.0799 20.5206 15.0799C19.5635 15.0799 18.8061 15.572 18.8061 16.6712C18.8061 17.7702 19.9796 17.9262 20.1711 17.9754C20.4041 18.0409 21.045 18.1148 21.045 18.812C21.045 19.0745 20.7287 19.1401 20.454 19.1401C20.1877 19.1401 19.9131 18.9351 19.9131 18.6316H18.6396C18.6396 19.7799 19.5468 20.2393 20.454 20.2393C21.3612 20.2393 22.2268 19.5174 22.2268 18.6479C22.2268 17.7949 21.3779 17.2945 20.7121 17.196C19.705 17.0566 19.8049 16.1953 20.3875 16.1953C20.9368 16.1954 20.9035 16.4333 20.9201 16.5235Z" fill="white"/>
<path d="M41.8189 18.3444C41.4028 18.8612 40.7619 19.1893 40.0462 19.1893C38.7977 19.1893 37.7906 18.1968 37.7906 16.9828C37.7906 15.7524 38.7977 14.7599 40.0462 14.7599C40.7536 14.7599 41.3945 15.0798 41.8023 15.5883H43.2671C42.7261 14.3252 41.4694 13.4967 40.0462 13.4967C38.0903 13.4967 36.5089 15.0552 36.5089 16.9828C36.5089 18.894 38.0903 20.4607 40.0462 20.4607C41.4944 20.4607 42.7428 19.5749 43.2921 18.3444H41.8189Z" fill="white"/>
<path d="M56.9169 20.2967C58.4067 20.2967 59.6218 19.099 59.6218 17.639C59.6218 16.1625 58.4066 14.9731 56.9169 14.9731V16.1051C57.7741 16.1051 58.4733 16.7941 58.4733 17.639C58.4733 18.4756 57.7741 19.1646 56.9169 19.1646V20.2967ZM56.9169 20.2967V19.1646C56.0596 19.1646 55.3605 18.4756 55.3605 17.639C55.3605 16.7941 56.0596 16.1051 56.9169 16.1051V14.9731C55.4271 14.9731 54.2119 16.1625 54.2119 17.639C54.2119 19.099 55.4271 20.2967 56.9169 20.2967Z" fill="white"/>
<path d="M46.8461 20.2967C48.3442 20.2967 49.551 19.099 49.551 17.639C49.551 16.1625 48.3442 14.9731 46.8461 14.9731V16.1051C47.7033 16.1051 48.4025 16.7941 48.4025 17.639C48.4025 18.4756 47.7033 19.1646 46.8461 19.1646V20.2967ZM46.8461 14.9733C45.3563 14.9733 44.1411 16.1626 44.1411 17.6391C44.1411 19.0991 45.3564 20.2967 46.8461 20.2967V19.1646C45.9888 19.1646 45.2897 18.4757 45.2897 17.6391C45.2897 16.7942 45.9888 16.1051 46.8461 16.1051V14.9733Z" fill="white"/>
<path d="M29.2347 18.1639H31.8731C31.8814 18.0902 31.8898 18.0081 31.8898 17.9343V17.7128C31.8482 16.5234 31.0908 15.0634 29.2348 15.047V16.2855C29.8673 16.2855 30.4916 16.5726 30.4916 17.1386H29.2348V18.1639H29.2347ZM29.2347 20.3131C30.2834 20.2967 31.7565 19.6241 31.7565 18.7628H30.35C30.35 18.968 29.809 19.1565 29.2347 19.1485V20.3131ZM27.9446 18.1639H29.2347V17.1386H27.9779C27.9779 16.5726 28.6021 16.2855 29.2347 16.2855V15.0471C29.2264 15.0471 29.2097 15.0471 29.2014 15.0471C27.5202 15.0471 26.6046 16.4251 26.5963 17.7703V17.8195C26.6213 19.091 27.4453 20.3132 29.1847 20.3132C29.2014 20.3132 29.218 20.3131 29.2347 20.3131V19.1485C28.6021 19.1403 27.9446 18.8858 27.9446 18.1639Z" fill="white"/>
<path d="M14.7528 20.2967C16.2426 20.2967 17.4578 19.099 17.4578 17.639C17.4578 16.1625 16.2426 14.9731 14.7528 14.9731V16.1051C15.6101 16.1051 16.3092 16.7941 16.3092 17.639C16.3092 18.4756 15.6101 19.1646 14.7528 19.1646V20.2967ZM14.7528 20.2967V19.1646C13.8955 19.1646 13.1964 18.4756 13.1964 17.639C13.1964 16.7941 13.8955 16.1051 14.7528 16.1051V14.9731C13.2547 14.9731 12.0479 16.1625 12.0479 17.639C12.0479 19.099 13.2547 20.2967 14.7528 20.2967Z" fill="white"/>
</g>
<defs>
<clipPath id="clip0_151_237">
<rect width="63" height="36" fill="white"/>
</clipPath>
</defs>
</svg>
