<svg width="101" height="36" viewBox="0 0 101 36" fill="none" xmlns="http://www.w3.org/2000/svg">
<g clip-path="url(#clip0_151_236)">
<path fill-rule="evenodd" clip-rule="evenodd" d="M44.2128 6.10699C44.2128 6.10699 44.2128 6.10699 46.3371 6.10699C47.1112 6.10699 47.5012 6.48868 47.5012 7.35037C47.5012 7.35037 47.5012 7.35037 47.5012 10.4039C47.5012 10.4039 47.5012 10.4039 51.6626 10.4039C51.6626 10.4039 51.6626 10.4039 51.6626 7.35037C51.6626 6.48868 52.0467 6.10699 52.9197 6.10699C52.9197 6.10699 52.9197 6.10699 54.9509 6.10699C54.9509 6.10699 54.9509 6.107 54.9509 8.11374C54.9509 8.11374 54.9509 8.11374 54.0837 8.11374L53.9848 8.21206C53.9848 8.21206 53.9848 8.21205 53.9848 16.8058C53.9848 16.8058 53.9848 16.8058 51.6626 16.8058C51.6626 16.8058 51.6626 16.8058 51.6626 12.5089C51.6626 12.5089 51.6626 12.5089 47.5012 12.5089C47.5012 12.5089 47.5012 12.5089 47.5012 16.8058C47.5012 16.8058 47.5012 16.8058 45.1789 16.8058C45.1789 16.8058 45.1789 16.8058 45.1789 8.21206C45.1789 8.21206 45.1789 8.11374 45.08 8.11374C45.08 8.11374 45.08 8.11374 44.2128 8.11374C44.2128 8.11374 44.2128 8.11374 44.2128 6.10699Z" fill="#ED1C24"/>
<path fill-rule="evenodd" clip-rule="evenodd" d="M61.0447 5.91614L61.0971 5.92192V8.12529L61.0447 8.11373C59.3045 8.11373 57.9484 9.54795 57.9484 11.3638C57.9484 13.2723 59.3045 14.799 61.0447 14.799L61.0971 14.7875V16.9908L61.0447 16.9966C57.9484 16.9966 55.4341 14.5157 55.4341 11.3638C55.4341 8.30457 57.9484 5.91614 61.0447 5.91614Z" fill="#ED1C24"/>
<path fill-rule="evenodd" clip-rule="evenodd" d="M61.097 5.92194L62.1738 6.02604C64.7288 6.52338 66.6553 8.68628 66.6553 11.3639C66.6553 14.1166 64.7288 16.3663 62.1738 16.881L61.097 16.9909V14.7875L62.2785 14.533C63.4193 14.0125 64.2399 12.7923 64.2399 11.3639C64.2399 9.99905 63.4193 8.85399 62.2785 8.3682L61.097 8.12531V5.92194Z" fill="#ED1C24"/>
<path fill-rule="evenodd" clip-rule="evenodd" d="M67.1383 6.10699C67.1383 6.10699 67.1383 6.10699 70.3801 6.10699H71.9283V8.11374H71.7828C71.5907 8.11374 71.2008 8.11374 70.4267 8.11374C70.4267 8.11374 70.4267 8.11374 70.4267 10.3113C70.4267 10.3113 70.4267 10.3113 71.0844 10.3113H71.9283V12.2198H71.4336C71.1891 12.2198 70.8632 12.2198 70.4267 12.2198C70.4267 12.2198 70.4267 12.2198 70.4267 14.6082C70.4267 14.7065 70.4267 14.7065 70.5256 14.7065C70.5256 14.7065 70.5256 14.7065 71.2182 14.7065H71.9283V16.8058H71.7246C71.3754 16.8058 70.6711 16.8058 69.2685 16.8058C68.4944 16.8058 68.1103 16.4241 68.1103 15.5624V8.11374C68.1103 8.11374 68.1103 8.11374 67.1383 8.11374C67.1383 8.11374 67.1383 8.11374 67.1383 6.10699Z" fill="#ED1C24"/>
<path fill-rule="evenodd" clip-rule="evenodd" d="M71.9283 6.10699H71.9749C74.1051 6.10699 75.3622 7.25206 75.3622 8.97543C75.3622 10.0222 74.8792 10.693 74.3961 11.173C75.2691 11.5547 75.8453 12.5089 75.8453 13.5557C75.8453 15.5624 74.2971 16.8058 72.0738 16.8058C72.0738 16.8058 72.0738 16.8058 72.0331 16.8058H71.9283V14.7065H72.167C72.941 14.7065 73.4299 14.2265 73.4299 13.4631C73.4299 12.6998 72.941 12.2198 72.167 12.2198C72.167 12.2198 72.167 12.2198 71.9516 12.2198H71.9283V10.3113H71.9749C72.6559 10.3113 73.04 9.83133 73.04 9.16627C73.04 8.49543 72.6559 8.11374 71.9749 8.11374C71.9749 8.11374 71.9749 8.11374 71.9516 8.11374H71.9283V6.10699Z" fill="#ED1C24"/>
<path fill-rule="evenodd" clip-rule="evenodd" d="M80.2978 6.10699C80.2978 6.10699 80.2978 6.10699 81.2756 6.10699H81.456V9.16627C81.3629 9.35712 81.2639 9.64049 81.2639 9.92965C81.2639 9.92965 81.2639 9.92965 80.4898 12.1272C80.4898 12.1272 80.4898 12.1272 81.3105 12.1272H81.456V14.1282H80.9322C80.6353 14.1282 80.2978 14.1282 79.9136 14.1282C79.9136 14.1282 79.9136 14.1282 79.2327 15.8516C79.0406 16.5166 78.6565 16.8058 77.8824 16.8058C77.8824 16.8058 77.8824 16.8058 76.4274 16.8058C76.4274 16.8058 76.4274 16.8058 76.4274 14.7065C76.4274 14.7065 76.4274 14.7065 76.9104 14.7065C77.1083 14.7065 77.1083 14.7065 77.2014 14.6082C77.2014 14.6082 77.2014 14.6082 80.2978 6.10699Z" fill="#ED1C24"/>
<path fill-rule="evenodd" clip-rule="evenodd" d="M81.4559 6.10699H82.62C82.62 6.10699 82.62 6.10699 85.7163 14.6082C85.8094 14.7065 85.8094 14.7065 86.0015 14.7065C86.0015 14.7065 86.0015 14.7065 86.3914 14.7065C86.3914 14.7065 86.3914 14.7065 86.3914 16.8058C86.3914 16.8058 86.3914 16.8058 85.0353 16.8058C84.2612 16.8058 83.8771 16.5166 83.6792 15.7533C83.6792 15.7533 83.6792 15.7533 83.0041 14.1282C83.0041 14.1282 83.0041 14.1282 81.7004 14.1282H81.4559V12.1272H82.4221C82.4221 12.1272 82.4221 12.1272 81.6538 9.92965C81.6538 9.64049 81.5549 9.35712 81.4559 9.16627V6.10699Z" fill="#ED1C24"/>
<path fill-rule="evenodd" clip-rule="evenodd" d="M44.2128 19.8593C44.2128 19.8593 44.2128 19.8593 52.6287 19.8593C53.4028 19.8593 53.8859 20.241 53.8859 21.1027C53.8859 21.1027 53.8859 21.1027 53.8859 28.3605C53.8859 28.453 53.8859 28.453 53.9848 28.453C53.9848 28.453 53.9848 28.453 54.7589 28.453C54.7589 28.453 54.7589 28.453 54.7589 30.5581C54.7589 30.5581 54.7589 30.5581 52.7277 30.5581C51.8546 30.5581 51.4705 30.1764 51.4705 29.3147C51.4705 29.3147 51.4705 29.3147 51.4705 21.9643C51.4705 21.9643 51.4705 21.866 51.3716 21.866C51.3716 21.866 51.3716 21.866 47.5012 21.866C47.5012 21.866 47.5012 21.866 47.5012 30.5581C47.5012 30.5581 47.5012 30.5581 45.1789 30.5581C45.1789 30.5581 45.1789 30.5581 45.1789 21.866C45.1789 21.866 45.1789 21.866 44.2128 21.866C44.2128 21.866 44.2128 21.866 44.2128 19.8593Z" fill="#ED1C24"/>
<path fill-rule="evenodd" clip-rule="evenodd" d="M60.8526 19.6684L60.8991 19.6742V21.8776L60.8526 21.866C59.1065 21.866 57.7563 23.3002 57.7563 25.1161C57.7563 27.0246 59.1065 28.5513 60.8526 28.5513L60.8991 28.5398V30.7431L60.8526 30.7489C57.7563 30.7489 55.3351 28.2622 55.3351 25.1161C55.3351 22.0569 57.7563 19.6684 60.8526 19.6684Z" fill="#ED1C24"/>
<path fill-rule="evenodd" clip-rule="evenodd" d="M60.8992 19.6742L62.0108 19.7783C64.6124 20.2757 66.4632 22.4386 66.4632 25.1162C66.4632 27.8689 64.6124 30.1186 62.0108 30.6333L60.8992 30.7431V28.5398L62.1272 28.2853C63.2854 27.7648 64.0479 26.5446 64.0479 25.1162C64.0479 23.7513 63.2854 22.6063 62.1272 22.1205L60.8992 21.8776V19.6742Z" fill="#ED1C24"/>
<path fill-rule="evenodd" clip-rule="evenodd" d="M66.9463 19.8593C66.9463 19.8593 66.9463 19.8593 69.0765 19.8593C69.8505 19.8593 70.2347 20.241 70.2347 21.1027C70.2347 21.1027 70.2347 21.1027 70.2347 28.3605C70.2347 28.453 70.2347 28.453 70.3336 28.453C70.3336 28.453 70.3336 28.453 73.1389 28.453C73.1389 28.453 73.1389 28.453 73.1389 19.8593C73.1389 19.8593 73.1389 19.8593 75.4612 19.8593C75.4612 19.8593 75.4612 19.8593 75.4612 28.453C75.4612 28.453 75.4612 28.453 78.2665 28.453C78.3654 28.453 78.3654 28.453 78.3654 28.3605C78.3654 28.3605 78.3654 28.3605 78.3654 21.1027C78.3654 20.241 78.7496 19.8593 79.5236 19.8593C79.5236 19.8593 79.5236 19.8593 81.6538 19.8593C81.6538 19.8593 81.6538 19.8593 81.6538 21.866C81.6538 21.866 81.6538 21.866 80.7808 21.866C80.6818 21.866 80.6818 21.9643 80.6818 21.9643C80.6818 21.9643 80.6818 21.9643 80.6818 29.3147C80.6818 30.1764 80.2977 30.5581 79.5236 30.5581C79.5236 30.5581 79.5236 30.5581 69.1696 30.5581C68.3024 30.5581 67.9124 30.1764 67.9124 29.3147C67.9124 29.3147 67.9124 29.3147 67.9124 21.9643C67.9124 21.9643 67.9124 21.866 67.8193 21.866C67.8193 21.866 67.8193 21.866 66.9463 21.866C66.9463 21.866 66.9463 21.866 66.9463 19.8593Z" fill="#ED1C24"/>
<path fill-rule="evenodd" clip-rule="evenodd" d="M83.4872 19.8593C83.4872 19.8593 83.4872 19.8593 90.7449 19.8593C91.618 19.8593 91.909 20.241 91.909 21.0043C91.909 21.0043 91.909 21.0043 91.909 22.8202H89.7788C89.7788 22.8202 89.7788 22.8202 89.7788 21.9643C89.7788 21.866 89.7788 21.866 89.6798 21.866C89.6798 21.866 89.6798 21.866 88.3296 21.866C88.3296 21.866 88.3296 21.866 88.3296 30.5581C88.3296 30.5581 88.3296 30.5581 86.0015 30.5581C86.0015 30.5581 86.0015 30.5581 86.0015 21.866C86.0015 21.866 86.0015 21.866 84.6512 21.866C84.5523 21.866 84.5523 21.866 84.5523 21.9643C84.5523 21.9643 84.5523 21.9643 84.5523 22.8202C84.5523 22.8202 84.5523 22.8202 82.4221 22.8202C82.4221 22.8202 82.4221 22.8202 82.4221 21.0043C82.4221 20.241 82.7131 19.8593 83.4872 19.8593Z" fill="#ED1C24"/>
<path fill-rule="evenodd" clip-rule="evenodd" d="M94.9063 19.8593C94.9063 19.8593 94.9063 19.8593 95.8841 19.8593H96.0645V22.9186C95.9656 23.1094 95.8724 23.3928 95.8724 23.6819C95.8724 23.6819 95.8724 23.6819 95.0984 25.8795C95.0984 25.8795 95.0984 25.8795 95.9132 25.8795H96.0645V27.8805H95.5407C95.2439 27.8805 94.9063 27.8805 94.5163 27.8805C94.5163 27.8805 94.5163 27.8805 93.8412 29.5055C93.6491 30.2689 93.2592 30.5581 92.4851 30.5581C92.4851 30.5581 92.4851 30.5581 91.0359 30.5581C91.0359 30.5581 91.0359 30.5581 91.0359 28.453C91.0359 28.453 91.0359 28.453 91.519 28.453C91.7168 28.453 91.7168 28.453 91.81 28.3605C91.81 28.3605 91.81 28.3605 94.9063 19.8593Z" fill="#ED1C24"/>
<path fill-rule="evenodd" clip-rule="evenodd" d="M96.0645 19.8593H97.2227C97.2227 19.8593 97.2227 19.8593 100.325 28.3605C100.418 28.453 100.418 28.453 100.616 28.453H101C101 28.453 101 28.453 101 30.5581C101 30.5581 101 30.5581 99.6438 30.5581C98.8698 30.5581 98.4856 30.2689 98.2877 29.5055C98.2877 29.5055 98.2877 29.5055 97.6126 27.8805C97.6126 27.8805 97.6126 27.8805 96.3089 27.8805H96.0645V25.8795H97.0306C97.0306 25.8795 97.0306 25.8795 96.2565 23.6819C96.2565 23.3928 96.1634 23.1094 96.0645 22.9186V19.8593Z" fill="#ED1C24"/>
<path fill-rule="evenodd" clip-rule="evenodd" d="M29.3015 10.6583C29.4121 10.6236 29.5576 10.693 29.7031 10.8839C29.7031 10.8839 29.7031 10.8839 36.2799 17.28C36.664 17.6617 36.664 18.24 36.2799 18.5234C36.2799 18.5234 36.2799 18.5234 29.7031 25.0178C29.5576 25.2087 29.4121 25.2549 29.3015 25.1971C29.1909 25.1393 29.1211 24.9716 29.1211 24.7287V11.0747C29.1211 10.8376 29.1909 10.693 29.3015 10.6583Z" fill="#ED1C24"/>
<path fill-rule="evenodd" clip-rule="evenodd" d="M18.0512 0H18.5168L18.965 0.185061C18.965 0.185061 18.965 0.185061 25.7338 6.87036C26.0248 7.25205 25.9259 7.5412 25.4428 7.5412C25.4428 7.5412 25.4428 7.5412 22.6375 7.5412C22.1544 7.5412 21.7703 7.92289 21.7703 8.40289C21.7703 8.40289 21.7703 8.40289 21.7703 13.3648C21.7703 13.8448 21.3803 14.2265 20.7983 14.2265C20.7983 14.2265 20.7983 14.2265 15.8686 14.2265C15.3856 14.2265 14.9956 13.8448 14.9956 13.3648C14.9956 13.3648 14.9956 13.3648 14.9956 8.40289C14.9956 7.92289 14.6115 7.5412 14.1226 7.5412H11.1252C10.6421 7.5412 10.5432 7.25205 10.8342 6.87036C10.8342 6.87036 10.8342 6.87036 17.6089 0.185061L18.0512 0Z" fill="#ED1C24"/>
<path fill-rule="evenodd" clip-rule="evenodd" d="M7.44688 10.5137C7.56911 10.5716 7.64477 10.7393 7.64477 10.9822V24.9195C7.64477 25.1624 7.56911 25.307 7.44688 25.3533C7.33048 25.3995 7.1617 25.3533 6.96381 25.2087C6.96381 25.2087 6.96381 25.2087 0.288098 18.5234C-0.0960325 18.24 -0.0960325 17.6617 0.288098 17.28C0.288098 17.28 0.288098 17.28 6.96381 10.693C7.1617 10.5022 7.33048 10.4559 7.44688 10.5137Z" fill="#ED1C24"/>
<path fill-rule="evenodd" clip-rule="evenodd" d="M15.8686 21.4843C15.8686 21.4843 15.8686 21.4843 20.7983 21.4843C21.3803 21.4843 21.7702 21.866 21.7702 22.346C21.7702 22.346 21.7702 22.346 21.7702 27.5971C21.7702 28.1696 22.1543 28.5513 22.6374 28.5513H25.2507C25.7337 28.5513 25.9258 28.8347 25.5417 29.1239C25.5417 29.1239 25.5417 29.1239 18.9649 35.7109C18.767 35.9017 18.5284 36 18.2839 36C18.0453 36 17.8009 35.9017 17.6088 35.7109C17.6088 35.7109 17.6088 35.7108 11.032 29.1239C10.6421 28.8347 10.8342 28.5513 11.3172 28.5513C11.3172 28.5513 11.3172 28.5513 14.1225 28.5513C14.6114 28.5513 14.9956 28.1696 14.9956 27.5971C14.9956 27.5971 14.9956 27.5971 14.9956 22.346C14.9956 21.866 15.3855 21.4843 15.8686 21.4843Z" fill="#ED1C24"/>
</g>
<defs>
<clipPath id="clip0_151_236">
<rect width="101" height="36" fill="white"/>
</clipPath>
</defs>
</svg>
