<svg width="155" height="28" viewBox="0 0 155 28" fill="none" xmlns="http://www.w3.org/2000/svg">
<g clip-path="url(#clip0_151_238)">
<path d="M29.3418 23.4471H25.537V9.84338H39.2341V23.4471H35.4302V12.4861H29.3418V23.4471Z" fill="#60B238"/>
<path d="M41.0793 13.5741V27.0429H44.5856V22.4369C45.7606 23.7201 47.6748 23.8171 48.1362 23.8171C51.4802 23.8171 53.5322 21.659 53.5322 18.5302C53.5322 15.2655 51.5026 13.2056 48.2057 13.2056C47.3746 13.2056 45.7606 13.3416 44.423 14.7607H44.3541L44.3768 13.5741H41.0793ZM44.423 18.491C44.423 15.7321 46.1071 15.1881 47.168 15.1881C48.2057 15.1881 49.8889 15.7321 49.8889 18.491C49.8889 20.202 49.1744 21.8351 47.168 21.8351C45.1157 21.8351 44.423 20.202 44.423 18.491Z" fill="#60B238"/>
<path d="M62.2252 22.2625C60.9344 23.486 59.6907 23.8171 58.3057 23.8171C54.5239 23.8171 54.3849 20.9405 54.3849 19.7553V13.5741H57.8903V19.2881C57.8903 21.2517 58.5608 21.8351 59.851 21.8351C62.0637 21.8351 62.2252 19.833 62.2252 19.1138V13.5741H65.732V23.4471H62.2252V22.2625Z" fill="#60B238"/>
<path d="M70.7592 19.2881H72.9041C74.5632 19.2881 74.9093 19.7938 74.9093 20.4549C74.9093 20.8821 74.6778 21.4654 72.9475 21.4654H70.7592V19.2881ZM67.2538 13.5741V23.4471H74.2181C76.7546 23.4471 78.5067 22.942 78.5067 20.9209C78.5067 19.3661 77.6524 18.6861 75.7163 18.3366V18.2779C76.985 18.103 78.0924 17.3059 78.0924 15.9654C78.0924 13.5741 75.3247 13.5741 74.2408 13.5741H67.2538ZM70.7592 15.5575H72.6487C73.6407 15.5575 74.4931 15.7128 74.4931 16.5283C74.4931 17.4232 73.1561 17.4425 72.5798 17.4425H70.7592V15.5575Z" fill="#60B238"/>
<path d="M82.9338 16.7619C82.9338 15.3043 84.4555 15.1881 85.0786 15.1881C85.471 15.1881 86.9227 15.2077 86.9701 16.4901C86.9701 16.5873 86.9701 16.665 86.9701 16.7619C86.9008 17.7336 85.9784 17.5395 83.3965 17.8697C81.2735 18.1611 79.0367 18.7048 79.0367 20.96C79.0367 21.7764 79.3829 23.8171 83.1188 23.8171C84.5494 23.8171 86.1177 23.4471 87.0385 22.476H87.1097L87.4082 23.4471H91.0975V23.2728C90.429 23.1365 90.3827 22.476 90.4054 21.4068L90.4747 16.8974C90.4982 15.7516 90.3827 13.2056 85.1021 13.2056C83.8335 13.2056 79.7518 13.3218 79.5903 16.7619H82.9338ZM86.9928 19.3661C86.9928 21.3487 85.286 21.8351 84.4339 21.8351C83.787 21.8351 82.6341 21.6205 82.6341 20.6882C82.6341 19.5798 83.9482 19.3661 84.687 19.2689C86.0476 19.0744 85.9318 19.1331 86.9928 18.7439V19.3661Z" fill="#60B238"/>
<path d="M90.8671 15.5575V13.5741H102.12V15.5575H98.246V23.4471H94.7414V15.5575H90.8671Z" fill="#60B238"/>
<path d="M106.595 12.4861H115.334V9.84338H102.788V23.4471H110.491C114.227 23.4471 116.624 22.1265 116.624 19.3465C116.624 14.9939 111.828 14.8961 110.491 14.8961H106.595V12.4861ZM106.595 17.5394H109.753C110.677 17.5394 112.521 17.637 112.521 19.2689C112.521 20.5518 111.183 20.8041 109.685 20.8041H106.595V17.5394Z" fill="#60B238"/>
<path d="M121.192 16.7619C121.192 15.3043 122.714 15.1881 123.336 15.1881C123.728 15.1881 125.182 15.2077 125.228 16.4901C125.228 16.5873 125.228 16.665 125.228 16.7619C125.158 17.7336 124.236 17.5395 121.651 17.8697C119.531 18.1611 117.295 18.7048 117.295 20.96C117.295 21.7764 117.64 23.8171 121.376 23.8171C122.805 23.8171 124.374 23.4471 125.296 22.476H125.365L125.665 23.4471H129.354V23.2728C128.688 23.1365 128.64 22.476 128.663 21.4068L128.732 16.8974C128.755 15.7516 128.64 13.2056 123.358 13.2056C122.092 13.2056 118.009 13.3218 117.848 16.7619H121.192ZM125.25 19.3661C125.25 21.3487 123.543 21.8351 122.691 21.8351C122.045 21.8351 120.892 21.6205 120.892 20.6882C120.892 19.5798 122.205 19.3661 122.943 19.2689C124.305 19.0744 124.189 19.1331 125.25 18.7439V19.3661Z" fill="#60B238"/>
<path d="M133.736 23.4471H130.231V13.5741H133.736V17.2866H137.957V13.5741H141.462V23.4471H137.957V19.2689H133.736V23.4471Z" fill="#60B238"/>
<path d="M150.317 13.5741H154.213L149.394 18.1994L154.444 23.4471H150.339L146.557 19.1331H146.489V23.4471H142.985V13.5741H146.489V17.5395H146.557L150.317 13.5741Z" fill="#60B238"/>
<path d="M0.0804443 23.4826H8.86028V14.6036H0.0804443V23.4826Z" fill="#373435"/>
<path d="M17.9044 5.47038C17.9044 8.48956 17.9044 15.7712 17.9044 18.7904C17.0705 18.7904 16.9237 18.7904 16.1133 18.7904C15.34 12.2029 11.247 8.06493 4.73201 7.28285C4.73201 6.46335 4.73201 6.31539 4.73201 5.47038C7.71777 5.47038 14.9187 5.47038 17.9044 5.47038ZM0.0899658 0.776489V11.8279H2.41169C8.52139 11.8279 11.6193 14.9602 11.6193 21.1369V23.4848H22.5465V0.776489H0.0899658Z" fill="#60B238"/>
</g>
<defs>
<clipPath id="clip0_151_238">
<rect width="155" height="27" fill="white" transform="translate(0 0.5)"/>
</clipPath>
</defs>
</svg>
