<svg width="60" height="60" viewBox="0 0 60 60" fill="none" xmlns="http://www.w3.org/2000/svg">
<g clip-path="url(#clip0_118_223)">
<path d="M30 60C46.5685 60 60 46.5685 60 30C60 13.4315 46.5685 0 30 0C13.4315 0 0 13.4315 0 30C0 46.5685 13.4315 60 30 60Z" fill="#34AADF"/>
<path d="M12.4857 29.7398C12.4857 29.7398 27.4857 23.5838 32.6879 21.4162C34.6822 20.5492 41.4452 17.7745 41.4452 17.7745C41.4452 17.7745 44.5666 16.5607 44.3064 19.5086C44.2197 20.7226 43.5261 24.971 42.8325 29.5664C41.792 36.0694 40.6648 43.1791 40.6648 43.1791C40.6648 43.1791 40.4914 45.1734 39.0174 45.5202C37.5435 45.867 35.1156 44.3064 34.6822 43.9595C34.3353 43.6994 28.1793 39.7976 25.925 37.8901C25.318 37.3699 24.6244 36.3295 26.0116 35.1156C29.133 32.2543 32.8613 28.6994 35.1156 26.4451C36.1562 25.4046 37.1966 22.9769 32.8613 25.9248C26.7053 30.1734 20.636 34.1618 20.636 34.1618C20.636 34.1618 19.2486 35.0288 16.6475 34.2485C14.0463 33.4682 11.0116 32.4277 11.0116 32.4277C11.0116 32.4277 8.93079 31.1272 12.4857 29.7398Z" fill="white"/>
</g>
<defs>
<clipPath id="clip0_118_223">
<rect width="60" height="60" fill="white"/>
</clipPath>
</defs>
</svg>
