<svg width="60" height="60" viewBox="0 0 60 60" fill="none" xmlns="http://www.w3.org/2000/svg">
<g clip-path="url(#clip0_118_222)">
<path d="M30 60C46.5685 60 60 46.5685 60 30C60 13.4315 46.5685 0 30 0C13.4315 0 0 13.4315 0 30C0 46.5685 13.4315 60 30 60Z" fill="#7360F2"/>
<g clip-path="url(#clip1_118_222)">
<path d="M30.6008 24.277C30.6181 23.9582 30.8905 23.7137 31.2093 23.731C32.1362 23.7811 32.9216 24.0628 33.4846 24.6479C34.0443 25.2296 34.3082 26.0324 34.3575 26.9705C34.3743 27.2893 34.1295 27.5614 33.8106 27.5782C33.4918 27.5949 33.2198 27.3501 33.203 27.0313C33.1626 26.264 32.9554 25.7654 32.6515 25.4495C32.3508 25.1371 31.88 24.9251 31.1468 24.8855C30.828 24.8682 30.5836 24.5958 30.6008 24.277Z" fill="white"/>
<path d="M30.6403 21.3984C30.3221 21.3733 30.0437 21.6109 30.0185 21.9292C29.9934 22.2475 30.231 22.5259 30.5493 22.551C32.1409 22.6767 33.3381 23.213 34.2062 24.1599C35.0395 25.073 35.4867 26.2702 35.4457 27.7026C35.4366 28.0217 35.688 28.2878 36.0071 28.2969C36.3262 28.306 36.5923 28.0547 36.6014 27.7356C36.6502 26.0267 36.1106 24.5313 35.0597 23.3801L35.0589 23.3793C33.9529 22.1723 32.4583 21.542 30.6403 21.3984Z" fill="white"/>
<path d="M29.1643 19.7757C29.1643 19.4564 29.4231 19.1976 29.7424 19.1976C32.3073 19.1976 34.4734 20.0584 36.2023 21.7398C37.9478 23.4372 38.845 25.7506 38.845 28.6166C38.845 28.9359 38.5862 29.1947 38.2669 29.1947C37.9476 29.1947 37.6888 28.9359 37.6888 28.6166C37.6888 26.0075 36.8811 24.0126 35.3963 22.5686C33.8948 21.1085 32.023 20.3538 29.7424 20.3538C29.4231 20.3538 29.1643 20.095 29.1643 19.7757Z" fill="white"/>
<path d="M32.2099 32.4309C31.8959 32.8348 31.2678 32.79 31.2678 32.79C26.8262 31.6232 25.7046 27.1804 25.7046 27.1804C25.7046 27.1804 25.6598 26.5522 26.0635 26.238L26.8711 25.6098C27.23 25.2957 27.4992 24.5328 27.0954 23.8147C26.9952 23.6644 26.8701 23.4705 26.7363 23.2631C26.5108 22.9136 26.2607 22.5258 26.0635 22.2441C25.7046 21.7504 24.8971 20.7632 24.8971 20.7632C24.4933 20.2695 23.91 20.1798 23.2819 20.4939C22.6987 20.8529 22.1603 21.3017 21.6668 21.8402C21.2631 22.2889 21.0387 22.7377 20.9939 23.1865V23.366C20.9939 23.5903 21.0387 23.7698 21.0836 23.9493C21.263 24.6673 21.7566 25.7893 22.7884 27.6741C23.4614 28.8857 24.1792 29.9179 24.8522 30.7705C25.2111 31.2193 25.6149 31.668 26.1084 32.1617L26.2879 32.3412C26.7365 32.8348 27.23 33.2387 27.6786 33.5977C28.5311 34.2709 29.5629 34.9889 30.7743 35.662C32.7034 36.6942 33.825 37.1878 34.498 37.3673C34.6774 37.4122 34.9018 37.4571 35.0812 37.4571H35.2607C35.7093 37.3673 36.158 37.1878 36.6066 36.7839C37.1898 36.2903 37.6385 35.7518 37.9525 35.1684C38.2666 34.5401 38.1768 33.9567 37.6833 33.5528C37.6833 33.5528 36.6963 32.7451 36.2028 32.3861C35.7542 32.0271 35.0364 31.5783 34.6326 31.3539C33.8699 30.95 33.1521 31.2193 32.838 31.6232L32.2099 32.4309Z" fill="white"/>
<path fill-rule="evenodd" clip-rule="evenodd" d="M42.5736 16.5447C41.7212 15.7818 38.3116 13.2688 30.6398 13.2239C30.6398 13.2239 21.6221 12.6854 17.2254 16.7242C14.7579 19.1924 13.9054 22.7376 13.8157 27.1803C13.726 31.6231 13.5914 39.9251 21.6221 42.2138V45.6693C21.6221 45.6693 21.5772 47.0604 22.4745 47.3297C23.3861 47.6215 23.9717 46.9647 24.7371 46.1061C24.9134 45.9084 25.0994 45.6998 25.3009 45.4898C25.8842 44.8615 26.6917 43.964 27.275 43.246C32.7484 43.6947 36.9656 42.6626 37.4591 42.4831C37.5576 42.4515 37.6956 42.4166 37.8659 42.3733C39.6359 41.9244 44.9075 40.5873 45.8487 33.0142C46.9255 24.398 45.4001 18.968 42.5736 16.5447ZM43.5158 32.3411C42.7388 38.6816 38.4577 39.6153 36.9928 39.9348C36.8506 39.9658 36.7349 39.9911 36.6516 40.0149C36.2478 40.1495 32.569 41.047 27.9031 40.7778C27.9031 40.7778 24.4485 44.9513 23.3269 46.0732C23.1475 46.2527 22.968 46.2975 22.8334 46.2975C22.654 46.2527 22.6091 46.0283 22.6091 45.7142C22.6091 45.2654 22.654 39.97 22.654 39.97C16.1602 38.1633 16.2621 31.5736 16.3212 27.7499C16.3238 27.5846 16.3263 27.4244 16.3281 27.2701C16.4178 23.5454 17.0908 20.5387 19.1546 18.4744C22.8783 15.1087 30.5501 15.6023 30.5501 15.6023C37.0105 15.6472 40.1061 17.5769 40.8239 18.25C43.1569 20.3143 44.3682 25.2058 43.5158 32.3411Z" fill="white"/>
</g>
</g>
<defs>
<clipPath id="clip0_118_222">
<rect width="60" height="60" fill="white"/>
</clipPath>
<clipPath id="clip1_118_222">
<rect width="32.4" height="34.2" fill="white" transform="translate(13.8 13.2)"/>
</clipPath>
</defs>
</svg>
