<svg width="87" height="28" viewBox="0 0 87 28" fill="none" xmlns="http://www.w3.org/2000/svg">
<g clip-path="url(#clip0_151_235)">
<path d="M56.6663 0.0341492C50.4889 0.0341492 44.9685 3.2068 44.9685 9.06853C44.9685 15.7908 54.7591 16.255 54.7591 19.6321C54.7591 21.054 53.1146 22.327 50.3058 22.327C46.3195 22.327 43.3402 20.5484 43.3402 20.5484L42.0654 26.4635C42.0654 26.4635 45.4975 27.9659 50.0543 27.9659C56.808 27.9659 62.1224 24.6374 62.1224 18.6755C62.1224 11.5722 52.2912 11.1217 52.2912 7.98727C52.2912 6.87323 53.6411 5.65278 56.4419 5.65278C59.602 5.65278 62.1803 6.94632 62.1803 6.94632L63.4279 1.23337C63.4279 1.23337 60.6225 0.0341492 56.6663 0.0341492ZM0.149616 0.465356L0 1.32768C0 1.32768 2.59885 1.79893 4.93949 2.7391C7.95323 3.81707 8.16798 4.44468 8.67553 6.39387L14.2064 27.5212H21.6208L33.0432 0.465356H25.6458L18.3063 18.8607L15.3114 3.2679C15.0367 1.48336 13.6454 0.465356 11.9424 0.465356H0.149616ZM36.0177 0.465356L30.2148 27.5211H37.2687L43.0513 0.46527H36.0177V0.465356ZM75.3601 0.465356C73.6591 0.465356 72.7579 1.36772 72.0966 2.94456L61.7621 27.5211H69.1594L70.5906 23.425H79.6026L80.473 27.5211H87L81.3058 0.465356H75.3601ZM76.3222 7.77499L78.5148 17.9276H72.6405L76.3222 7.77499Z" fill="#1434CB"/>
</g>
<defs>
<clipPath id="clip0_151_235">
<rect width="87" height="28" fill="white"/>
</clipPath>
</defs>
</svg>
